<svg xmlns="http://www.w3.org/2000/svg" viewBox="0 0 24 24" fill="none">
  <path d="M12 22V13" stroke="#8B4513" stroke-width="2" stroke-linecap="round" stroke-linejoin="round"/>
  <path d="M12 13C16.4183 13 20 9.41828 20 5C20 3.89543 19.1046 3 18 3C16.8954 3 16 3.89543 16 5C16 6.10457 15.1046 7 14 7C12.8954 7 12 6.10457 12 5C12 3.89543 11.1046 3 10 3C8.89543 3 8 3.89543 8 5C8 6.10457 7.10457 7 6 7C4.89543 7 4 6.10457 4 5C4 9.41828 7.58172 13 12 13Z" fill="#22C55E" stroke="#166534" stroke-width="1.5" stroke-linecap="round" stroke-linejoin="round"/>
</svg>
